<?xml version="1.0" encoding="utf-8"?>
<!-- Generator: Adobe Illustrator 25.2.3, SVG Export Plug-In . SVG Version: 6.00 Build 0)  -->
<svg version="1.1" xmlns="http://www.w3.org/2000/svg" xmlns:xlink="http://www.w3.org/1999/xlink" x="0px" y="0px"
	 viewBox="0 0 1280 1024" style="enable-background:new 0 0 1280 1024;" xml:space="preserve">
<style type="text/css">
	.st0{fill:none;stroke:#000000;stroke-width:20;stroke-linecap:round;stroke-linejoin:round;stroke-miterlimit:10;}
	.st1{fill:none;stroke:#000000;stroke-width:20;stroke-miterlimit:10;}
	.st2{fill:#8A0007;}
	.st3{fill:none;stroke:#FFFFFF;stroke-width:20;stroke-linecap:round;stroke-linejoin:round;stroke-miterlimit:10;}
	.st4{fill:#FFFFFF;}
	.st5{fill:none;stroke:#000000;stroke-width:3;stroke-miterlimit:10;}
	.st6{fill:#FFFFFF;stroke:#000000;stroke-width:0.25;stroke-miterlimit:10;}
	.st7{display:none;fill:none;stroke:#000000;stroke-width:9;stroke-miterlimit:10;}
	.st8{fill:none;stroke:#000000;stroke-width:9;stroke-miterlimit:10;}
</style>
<g id="Layer_1">
</g>
<g id="Layer_2">
</g>
<g id="Layer_3">
	<g>
		<g>
			<path d="M645.1,436v3c1.23,0,2.45,0.04,3.62,0.11c8.12,0.5,17.18,2.75,24.22,6.03c5.71,2.66,12.73,7.2,13.75,13.76
				c0.69,4.44-1.39,9.76-5.87,14.98c-7.13,8.33-21.02,16.74-35.99,16.74c-14.88-0.01-28.75-8.38-35.9-16.68
				c-4.51-5.24-6.63-10.59-5.96-15.06c1.75-11.71,23.61-19.87,42.13-19.87L645.1,436 M645.1,436c-19.26,0-43,8.36-45.1,22.43
				c-2.29,15.33,21.46,35.16,44.83,35.18c0.01,0,0.02,0,0.03,0c23.41,0,47.18-19.87,44.8-35.18c-2.16-13.89-25.45-21.38-40.75-22.32
				C647.66,436.04,646.39,436,645.1,436L645.1,436z"/>
		</g>
	</g>
	<g>
		<g>
			<path d="M645.1,440.5c1.2,0,2.38,0.04,3.53,0.11c13.91,0.85,34.93,7.93,36.58,18.52c0.62,4-1.34,8.89-5.52,13.77
				c-6.91,8.07-20.36,16.21-34.85,16.21c-14.41-0.01-27.84-8.12-34.76-16.16c-4.22-4.91-6.22-9.83-5.62-13.86
				c0.72-4.82,5.5-9.44,13.45-13.03C625.76,442.53,635.67,440.5,645.1,440.5 M645.1,437.5c-19.54,0-41.72,8.5-43.61,21.15
				c-0.73,4.91,1.51,10.68,6.31,16.26c7.37,8.55,21.67,17.19,37.03,17.2h0.03c15.42,0,29.75-8.67,37.11-17.26
				c4.76-5.56,6.97-11.31,6.21-16.19c-2-12.84-24.67-20.15-39.36-21.05C647.61,437.54,646.36,437.5,645.1,437.5L645.1,437.5z"/>
			<path class="st5" d="M645.1,436v3c1.23,0,2.45,0.04,3.62,0.11c8.12,0.5,17.18,2.75,24.22,6.03c5.71,2.66,12.73,7.2,13.75,13.76
				c0.69,4.44-1.39,9.76-5.87,14.98c-7.13,8.33-21.02,16.74-35.99,16.74c-14.88-0.01-28.75-8.38-35.9-16.68
				c-4.51-5.24-6.63-10.59-5.96-15.06c1.75-11.71,23.61-19.87,42.13-19.87L645.1,436 M645.1,436c-19.26,0-43,8.36-45.1,22.43
				c-2.29,15.33,21.46,35.16,44.83,35.18c0.01,0,0.02,0,0.03,0c23.41,0,47.18-19.87,44.8-35.18c-2.16-13.89-25.45-21.38-40.75-22.32
				C647.66,436.04,646.39,436,645.1,436L645.1,436z"/>
		</g>
	</g>
</g>
<g id="Layer_4">
	<g>
		<g>
			<path d="M557.31,416.64c-1.65,2.79-3.04,5.81-4.09,9.07c-7.75,24.03,5.17,52.23,38.39,83.81c8.33,7.92,15.54,13.44,20.63,16.69
				c-6.92-0.5-13.76-1.58-20.43-3.22c-15.92-3.92-33.97-8.36-45.18-24.12c-7.55-10.61-11.39-24.99-10.55-39.45
				c0.9-15.31,6.94-29.19,17.03-39.07C554.48,419.01,555.88,417.78,557.31,416.64 M596.82,394.87c-11.04,0-32.92,2.3-50.01,19.06
				c-24.94,24.45-25.12,65.42-7.51,90.17c13.15,18.48,33.97,23.61,50.36,27.65c11.16,2.75,21.8,3.81,31.59,3.81
				c21.95,0,39.66-5.32,49.54-8.91c-3.76,0.73-9.6,1.62-16.67,1.62c-9.65,0-21.59-1.66-33.65-7.66
				c-3.25-1.62-11.47-6.95-22.66-17.59c-16.12-15.33-45.14-46.26-36.02-74.53c7.11-22.04,33.98-31.09,41.38-33.34
				C602.1,395.04,599.87,394.87,596.82,394.87L596.82,394.87z"/>
		</g>
		<g>
			<path d="M699.5,418.86c1.78,1.03,3.57,2.14,5.35,3.34c11.59,7.78,22.53,18.78,30.81,30.97c13.4,19.72,18.2,39.56,12.84,53.07
				c-5.36,13.52-22.81,22.44-39.18,29.38c-10,4.24-21.39,7.57-33.73,9.89c0.78-0.74,1.56-1.48,2.32-2.23
				c5.19-5.08,14.84-14.52,22.91-27.9l0.1-0.16c7.92-13.11,19.88-32.93,16.34-57.52C714.72,440.07,706.27,426.91,699.5,418.86
				 M669.58,400.77c-0.23,0-0.45,0-0.67,0c-5.77,0.08-10.42,1.13-13.15,1.88c6.26,1.38,18.47,4.97,30.06,15.03
				c3.91,3.39,19.16,17.9,22.54,41.33c3.1,21.49-7.71,39.29-15.23,51.74c-7.38,12.22-16.14,20.87-21.51,26.12
				c-8.09,7.91-17.02,15.01-26.59,21.24c25.43-1.26,48.6-6.04,67.8-14.19c18.46-7.83,37.46-17.77,44.03-34.35
				C772.66,469.74,717.95,400.77,669.58,400.77L669.58,400.77z"/>
		</g>
		<g>
			<path d="M481.44,509.83c5.08,4.74,10.37,9.27,15.87,13.55c2.04,1.59,20.61,15.9,42.92,26.75
				c42.79,20.81,89.64,23.92,113.76,23.92c12.5,0,20.61-0.8,21.49-0.9c21.67-2.25,40.94-7.19,57.53-13.15
				c-5.17,3.67-10.62,7.41-16.3,11.15c-35.24,23.18-86.51,50.82-130.67,50.82c-13.32,0-25.25-2.59-35.47-7.71
				c-14.8-7.4-36.92-24.94-50.6-49.98C491.41,548.61,485.14,530.11,481.44,509.83 M469.17,483.88c2.19,31.99,9.91,60.94,22.9,84.73
				c13.32,24.4,35.62,44.28,54.47,53.72c12.06,6.03,25.41,8.66,39.5,8.66c91.91,0,214.98-111.66,212.49-115.62
				c-0.04-0.07-0.12-0.1-0.22-0.1c-3.79,0-48.82,41.17-123.76,48.94c-1.25,0.13-8.87,0.85-20.57,0.85
				c-25.19,0-69.34-3.33-109.82-23.01c-21.79-10.6-39.99-24.71-41.32-25.75C490.31,506.51,479.05,495.61,469.17,483.88
				L469.17,483.88z"/>
		</g>
		<g>
			<path d="M519.34,420.69c-10.6,28.18-11.78,53.44-3.48,75.32c1.92,5.05,4.25,9.71,6.88,14c-17.06-11.68-34.99-28.44-34.55-47.04
				c0.29-11.97,8.14-24.25,23.34-36.48C513.95,424.54,516.57,422.6,519.34,420.69 M539.3,398.89c-9.79,4.64-59.28,28.97-60.11,63.87
				c-1.15,47.97,90.46,82.76,97.29,82.76c0.21,0,0.34-0.03,0.39-0.1c0.93-1.44-38.7-15.94-52.6-52.6
				C511.7,459.69,525.88,423.6,539.3,398.89L539.3,398.89z"/>
		</g>
		<g>
			<path d="M727.58,408.52c24.49,9.92,46.31,23.73,60.01,39.1c6.48,7.27,14.04,18.3,13.24,29.53
				c-0.87,12.17-11.96,24.93-31.45,36.82c5.95-10.92,10.15-23.93,8.9-38.01C775.39,443.52,749.52,424.04,727.58,408.52 M652,383.7
				c-2.88,0-5.41,0.07-7.51,0.16c17.51,2.74,46.33,9.74,75.14,30.06c22.19,15.65,47.07,33.55,49.68,62.83
				c3.06,34.42-32.81,62.91-32.81,62.91c26.4-10.16,71.14-31.61,73.3-61.88c3.03-42.5-78.71-90.81-150.28-93.92
				C656.81,383.75,654.3,383.7,652,383.7L652,383.7z"/>
		</g>
		<ellipse class="st7" cx="636.98" cy="466.52" rx="39.45" ry="28.18"/>
	</g>
</g>
</svg>
